<?xml version="1.0" encoding="UTF-8"?>
<svg xmlns="http://www.w3.org/2000/svg" width="752" height="204" viewBox="0 0 752 204">
  <defs>
    <linearGradient id="bg" x1="0%" y1="0%" x2="100%" y2="100%">
      <stop offset="0%" stop-color="#667eea"/>
      <stop offset="100%" stop-color="#764ba2"/>
    </linearGradient>
    <filter id="shadow" x="-15%" y="-15%" width="130%" height="130%">
      <feDropShadow dx="0" dy="10" stdDeviation="14" flood-color="#000" flood-opacity="0.45"/>
    </filter>
    <style>
      .kw { fill:#c792ea; font-family:ui-monospace, 'Fira Code', 'JetBrains Mono', Consolas, monospace; font-size:13px; }
      .ann { fill:#ffb86c; font-family:ui-monospace, 'Fira Code', 'JetBrains Mono', Consolas, monospace; font-size:13px; }
      .str { fill:#c3e88d; font-family:ui-monospace, 'Fira Code', 'JetBrains Mono', Consolas, monospace; font-size:13px; }
      .typ { fill:#ffcb6b; font-family:ui-monospace, 'Fira Code', 'JetBrains Mono', Consolas, monospace; font-size:13px; }
      .met { fill:#82aaff; font-family:ui-monospace, 'Fira Code', 'JetBrains Mono', Consolas, monospace; font-size:13px; }
      .com { fill:#5c6370; font-family:ui-monospace, 'Fira Code', 'JetBrains Mono', Consolas, monospace; font-size:13px; }
      .num { fill:#f78c6c; font-family:ui-monospace, 'Fira Code', 'JetBrains Mono', Consolas, monospace; font-size:13px; }
      .pun { fill:#89ddff; font-family:ui-monospace, 'Fira Code', 'JetBrains Mono', Consolas, monospace; font-size:13px; }
      .txt { fill:#d6deeb; font-family:ui-monospace, 'Fira Code', 'JetBrains Mono', Consolas, monospace; font-size:13px; }
    </style>
  </defs>
  <rect width="100%" height="100%" fill="url(#bg)"/>
  <g filter="url(#shadow)">
    <rect x="48" y="48" width="656" height="108" rx="8" fill="#252836"/>
    <rect x="48" y="48" width="656" height="32" rx="8" fill="#252836"/>
    <rect x="48" y="74" width="656" height="6" fill="#252836"/>
    <circle cx="66" cy="64" r="5.5" fill="#ff5f56"/>
    <circle cx="84" cy="64" r="5.5" fill="#ffbd2e"/>
    <circle cx="102" cy="64" r="5.5" fill="#27c93f"/>
    <rect x="48" y="80" width="656" height="76" fill="#011627"/>
    <rect x="48" y="148" width="656" height="8" rx="8" fill="#011627"/>
  </g>
  <text x="66.0" y="113" class="typ">DecimalFormatSymbols</text>
  <text x="233.0" y="113" class="txt"> </text>
  <text x="241.3" y="113" class="txt">symbols</text>
  <text x="299.8" y="113" class="txt"> </text>
  <text x="308.2" y="113" class="pun">=</text>
  <text x="316.5" y="113" class="txt"> </text>
  <text x="324.9" y="113" class="kw">new</text>
  <text x="349.9" y="113" class="txt"> </text>
  <text x="358.3" y="113" class="met">DecimalFormatSymbols</text>
  <text x="525.3" y="113" class="pun">(</text>
  <text x="533.6" y="113" class="typ">Locale</text>
  <text x="583.7" y="113" class="pun">.</text>
  <text x="592.1" y="113" class="typ">ITALY</text>
  <text x="633.8" y="113" class="pun">)</text>
  <text x="642.2" y="113" class="pun">;</text>
  <text x="66.0" y="133" class="typ">DecimalFormat</text>
  <text x="174.6" y="133" class="txt"> </text>
  <text x="182.9" y="133" class="txt">df</text>
  <text x="199.6" y="133" class="txt"> </text>
  <text x="207.9" y="133" class="pun">=</text>
  <text x="216.3" y="133" class="txt"> </text>
  <text x="224.6" y="133" class="kw">new</text>
  <text x="249.7" y="133" class="txt"> </text>
  <text x="258.1" y="133" class="met">DecimalFormat</text>
  <text x="366.6" y="133" class="pun">(</text>
  <text x="375.0" y="133" class="str">&quot;#,###.##&quot;</text>
  <text x="458.5" y="133" class="pun">,</text>
  <text x="466.8" y="133" class="txt"> </text>
  <text x="475.2" y="133" class="txt">symbols</text>
  <text x="533.6" y="133" class="pun">)</text>
  <text x="542.0" y="133" class="pun">;</text>
</svg>
