<?xml version="1.0" encoding="UTF-8"?>
<svg xmlns="http://www.w3.org/2000/svg" width="736" height="244" viewBox="0 0 736 244">
  <defs>
    <linearGradient id="bg" x1="0%" y1="0%" x2="100%" y2="100%">
      <stop offset="0%" stop-color="#667eea"/>
      <stop offset="100%" stop-color="#764ba2"/>
    </linearGradient>
    <filter id="shadow" x="-15%" y="-15%" width="130%" height="130%">
      <feDropShadow dx="0" dy="10" stdDeviation="14" flood-color="#000" flood-opacity="0.45"/>
    </filter>
    <style>
      .kw { fill:#c792ea; font-family:ui-monospace, 'Fira Code', 'JetBrains Mono', Consolas, monospace; font-size:13px; }
      .ann { fill:#ffb86c; font-family:ui-monospace, 'Fira Code', 'JetBrains Mono', Consolas, monospace; font-size:13px; }
      .str { fill:#c3e88d; font-family:ui-monospace, 'Fira Code', 'JetBrains Mono', Consolas, monospace; font-size:13px; }
      .typ { fill:#ffcb6b; font-family:ui-monospace, 'Fira Code', 'JetBrains Mono', Consolas, monospace; font-size:13px; }
      .met { fill:#82aaff; font-family:ui-monospace, 'Fira Code', 'JetBrains Mono', Consolas, monospace; font-size:13px; }
      .com { fill:#5c6370; font-family:ui-monospace, 'Fira Code', 'JetBrains Mono', Consolas, monospace; font-size:13px; }
      .num { fill:#f78c6c; font-family:ui-monospace, 'Fira Code', 'JetBrains Mono', Consolas, monospace; font-size:13px; }
      .pun { fill:#89ddff; font-family:ui-monospace, 'Fira Code', 'JetBrains Mono', Consolas, monospace; font-size:13px; }
      .txt { fill:#d6deeb; font-family:ui-monospace, 'Fira Code', 'JetBrains Mono', Consolas, monospace; font-size:13px; }
    </style>
  </defs>
  <rect width="100%" height="100%" fill="url(#bg)"/>
  <g filter="url(#shadow)">
    <rect x="48" y="48" width="640" height="148" rx="8" fill="#252836"/>
    <rect x="48" y="48" width="640" height="32" rx="8" fill="#252836"/>
    <rect x="48" y="74" width="640" height="6" fill="#252836"/>
    <circle cx="66" cy="64" r="5.5" fill="#ff5f56"/>
    <circle cx="84" cy="64" r="5.5" fill="#ffbd2e"/>
    <circle cx="102" cy="64" r="5.5" fill="#27c93f"/>
    <rect x="48" y="80" width="640" height="116" fill="#011627"/>
    <rect x="48" y="188" width="640" height="8" rx="8" fill="#011627"/>
  </g>
  <text x="66.0" y="113" class="txt">spring</text>
  <text x="116.1" y="113" class="pun">:</text>
  <text x="66.0" y="133" class="txt">  </text>
  <text x="82.7" y="133" class="txt">kafka</text>
  <text x="124.5" y="133" class="pun">:</text>
  <text x="66.0" y="153" class="txt">    </text>
  <text x="99.4" y="153" class="txt">consumer</text>
  <text x="166.2" y="153" class="pun">:</text>
  <text x="66.0" y="173" class="txt">      </text>
  <text x="116.1" y="173" class="txt">auto</text>
  <text x="149.5" y="173" class="pun">-</text>
  <text x="157.8" y="173" class="txt">offset</text>
  <text x="207.9" y="173" class="pun">-</text>
  <text x="216.3" y="173" class="txt">reset</text>
  <text x="258.0" y="173" class="pun">:</text>
  <text x="266.4" y="173" class="txt"> </text>
  <text x="274.8" y="173" class="txt">earliest</text>
</svg>
