<?xml version="1.0" encoding="UTF-8"?>
<svg xmlns="http://www.w3.org/2000/svg" width="836" height="284" viewBox="0 0 836 284">
  <defs>
    <linearGradient id="bg" x1="0%" y1="0%" x2="100%" y2="100%">
      <stop offset="0%" stop-color="#667eea"/>
      <stop offset="100%" stop-color="#764ba2"/>
    </linearGradient>
    <filter id="shadow" x="-15%" y="-15%" width="130%" height="130%">
      <feDropShadow dx="0" dy="10" stdDeviation="14" flood-color="#000" flood-opacity="0.45"/>
    </filter>
    <style>
      .kw { fill:#c792ea; font-family:ui-monospace, 'Fira Code', 'JetBrains Mono', Consolas, monospace; font-size:13px; }
      .ann { fill:#ffb86c; font-family:ui-monospace, 'Fira Code', 'JetBrains Mono', Consolas, monospace; font-size:13px; }
      .str { fill:#c3e88d; font-family:ui-monospace, 'Fira Code', 'JetBrains Mono', Consolas, monospace; font-size:13px; }
      .typ { fill:#ffcb6b; font-family:ui-monospace, 'Fira Code', 'JetBrains Mono', Consolas, monospace; font-size:13px; }
      .met { fill:#82aaff; font-family:ui-monospace, 'Fira Code', 'JetBrains Mono', Consolas, monospace; font-size:13px; }
      .com { fill:#5c6370; font-family:ui-monospace, 'Fira Code', 'JetBrains Mono', Consolas, monospace; font-size:13px; }
      .num { fill:#f78c6c; font-family:ui-monospace, 'Fira Code', 'JetBrains Mono', Consolas, monospace; font-size:13px; }
      .pun { fill:#89ddff; font-family:ui-monospace, 'Fira Code', 'JetBrains Mono', Consolas, monospace; font-size:13px; }
      .txt { fill:#d6deeb; font-family:ui-monospace, 'Fira Code', 'JetBrains Mono', Consolas, monospace; font-size:13px; }
    </style>
  </defs>
  <rect width="100%" height="100%" fill="url(#bg)"/>
  <g filter="url(#shadow)">
    <rect x="48" y="48" width="740" height="188" rx="8" fill="#252836"/>
    <rect x="48" y="48" width="740" height="32" rx="8" fill="#252836"/>
    <rect x="48" y="74" width="740" height="6" fill="#252836"/>
    <circle cx="66" cy="64" r="5.5" fill="#ff5f56"/>
    <circle cx="84" cy="64" r="5.5" fill="#ffbd2e"/>
    <circle cx="102" cy="64" r="5.5" fill="#27c93f"/>
    <rect x="48" y="80" width="740" height="156" fill="#011627"/>
    <rect x="48" y="228" width="740" height="8" rx="8" fill="#011627"/>
  </g>
  <text x="66.0" y="113" class="kw">try</text>
  <text x="91.0" y="113" class="txt"> </text>
  <text x="99.4" y="113" class="pun">(</text>
  <text x="107.7" y="113" class="typ">Reader</text>
  <text x="157.8" y="113" class="txt"> </text>
  <text x="166.2" y="113" class="txt">reader</text>
  <text x="216.3" y="113" class="txt"> </text>
  <text x="224.6" y="113" class="pun">=</text>
  <text x="233.0" y="113" class="txt"> </text>
  <text x="241.3" y="113" class="typ">Files</text>
  <text x="283.1" y="113" class="pun">.</text>
  <text x="291.4" y="113" class="met">newBufferedReader</text>
  <text x="433.4" y="113" class="pun">(</text>
  <text x="441.7" y="113" class="txt">path</text>
  <text x="475.1" y="113" class="pun">)</text>
  <text x="483.5" y="113" class="pun">;</text>
  <text x="66.0" y="133" class="txt">     </text>
  <text x="107.8" y="133" class="typ">CSVParser</text>
  <text x="182.9" y="133" class="txt"> </text>
  <text x="191.2" y="133" class="txt">parser</text>
  <text x="241.3" y="133" class="txt"> </text>
  <text x="249.7" y="133" class="pun">=</text>
  <text x="258.0" y="133" class="txt"> </text>
  <text x="266.4" y="133" class="kw">new</text>
  <text x="291.4" y="133" class="txt"> </text>
  <text x="299.8" y="133" class="met">CSVParser</text>
  <text x="374.9" y="133" class="pun">(</text>
  <text x="383.3" y="133" class="txt">reader</text>
  <text x="433.4" y="133" class="pun">,</text>
  <text x="441.8" y="133" class="txt"> </text>
  <text x="450.1" y="133" class="typ">CSVFormat</text>
  <text x="525.2" y="133" class="pun">.</text>
  <text x="533.6" y="133" class="typ">DEFAULT</text>
  <text x="592.1" y="133" class="pun">.</text>
  <text x="600.4" y="133" class="met">withHeader</text>
  <text x="683.9" y="133" class="pun">(</text>
  <text x="692.3" y="133" class="pun">)</text>
  <text x="700.6" y="133" class="pun">)</text>
  <text x="709.0" y="133" class="pun">)</text>
  <text x="717.3" y="133" class="txt"> </text>
  <text x="725.7" y="133" class="pun">{</text>
  <text x="66.0" y="153" class="txt">    </text>
  <text x="99.4" y="153" class="kw">for</text>
  <text x="124.5" y="153" class="txt"> </text>
  <text x="132.8" y="153" class="pun">(</text>
  <text x="141.2" y="153" class="typ">CSVRecord</text>
  <text x="216.3" y="153" class="txt"> </text>
  <text x="224.7" y="153" class="kw">record</text>
  <text x="274.8" y="153" class="txt"> </text>
  <text x="283.1" y="153" class="pun">:</text>
  <text x="291.5" y="153" class="txt"> </text>
  <text x="299.8" y="153" class="txt">parser</text>
  <text x="349.9" y="153" class="pun">)</text>
  <text x="358.3" y="153" class="txt"> </text>
  <text x="366.6" y="153" class="pun">{</text>
  <text x="66.0" y="173" class="txt">        </text>
  <text x="132.8" y="173" class="typ">String</text>
  <text x="182.9" y="173" class="txt"> </text>
  <text x="191.2" y="173" class="txt">name</text>
  <text x="224.7" y="173" class="txt"> </text>
  <text x="233.0" y="173" class="pun">=</text>
  <text x="241.3" y="173" class="txt"> </text>
  <text x="249.7" y="173" class="kw">record</text>
  <text x="299.8" y="173" class="pun">.</text>
  <text x="308.1" y="173" class="met">get</text>
  <text x="333.2" y="173" class="pun">(</text>
  <text x="341.6" y="173" class="str">&quot;name&quot;</text>
  <text x="391.6" y="173" class="pun">)</text>
  <text x="400.0" y="173" class="pun">;</text>
  <text x="66.0" y="193" class="txt">    </text>
  <text x="99.4" y="193" class="pun">}</text>
  <text x="66.0" y="213" class="pun">}</text>
</svg>
