<?xml version="1.0" encoding="UTF-8"?>
<svg xmlns="http://www.w3.org/2000/svg" width="736" height="244" viewBox="0 0 736 244">
  <defs>
    <linearGradient id="bg" x1="0%" y1="0%" x2="100%" y2="100%">
      <stop offset="0%" stop-color="#667eea"/>
      <stop offset="100%" stop-color="#764ba2"/>
    </linearGradient>
    <filter id="shadow" x="-15%" y="-15%" width="130%" height="130%">
      <feDropShadow dx="0" dy="10" stdDeviation="14" flood-color="#000" flood-opacity="0.45"/>
    </filter>
    <style>
      .kw { fill:#c792ea; font-family:ui-monospace, 'Fira Code', 'JetBrains Mono', Consolas, monospace; font-size:13px; }
      .ann { fill:#ffb86c; font-family:ui-monospace, 'Fira Code', 'JetBrains Mono', Consolas, monospace; font-size:13px; }
      .str { fill:#c3e88d; font-family:ui-monospace, 'Fira Code', 'JetBrains Mono', Consolas, monospace; font-size:13px; }
      .typ { fill:#ffcb6b; font-family:ui-monospace, 'Fira Code', 'JetBrains Mono', Consolas, monospace; font-size:13px; }
      .met { fill:#82aaff; font-family:ui-monospace, 'Fira Code', 'JetBrains Mono', Consolas, monospace; font-size:13px; }
      .com { fill:#5c6370; font-family:ui-monospace, 'Fira Code', 'JetBrains Mono', Consolas, monospace; font-size:13px; }
      .num { fill:#f78c6c; font-family:ui-monospace, 'Fira Code', 'JetBrains Mono', Consolas, monospace; font-size:13px; }
      .pun { fill:#89ddff; font-family:ui-monospace, 'Fira Code', 'JetBrains Mono', Consolas, monospace; font-size:13px; }
      .txt { fill:#d6deeb; font-family:ui-monospace, 'Fira Code', 'JetBrains Mono', Consolas, monospace; font-size:13px; }
    </style>
  </defs>
  <rect width="100%" height="100%" fill="url(#bg)"/>
  <g filter="url(#shadow)">
    <rect x="48" y="48" width="640" height="148" rx="8" fill="#252836"/>
    <rect x="48" y="48" width="640" height="32" rx="8" fill="#252836"/>
    <rect x="48" y="74" width="640" height="6" fill="#252836"/>
    <circle cx="66" cy="64" r="5.5" fill="#ff5f56"/>
    <circle cx="84" cy="64" r="5.5" fill="#ffbd2e"/>
    <circle cx="102" cy="64" r="5.5" fill="#27c93f"/>
    <rect x="48" y="80" width="640" height="116" fill="#011627"/>
    <rect x="48" y="188" width="640" height="8" rx="8" fill="#011627"/>
  </g>
  <text x="66.0" y="113" class="txt">registry</text>
  <text x="132.8" y="113" class="pun">.</text>
  <text x="141.2" y="113" class="met">addMapping</text>
  <text x="224.7" y="113" class="pun">(</text>
  <text x="233.0" y="113" class="str">&quot;/**&quot;</text>
  <text x="274.8" y="113" class="pun">)</text>
  <text x="66.0" y="133" class="txt">    </text>
  <text x="99.4" y="133" class="pun">.</text>
  <text x="107.8" y="133" class="met">allowedOrigins</text>
  <text x="224.6" y="133" class="pun">(</text>
  <text x="233.0" y="133" class="str">&quot;http://localhost:3000&quot;</text>
  <text x="425.0" y="133" class="pun">)</text>
  <text x="66.0" y="153" class="txt">    </text>
  <text x="99.4" y="153" class="pun">.</text>
  <text x="107.8" y="153" class="met">allowedMethods</text>
  <text x="224.6" y="153" class="pun">(</text>
  <text x="233.0" y="153" class="str">&quot;GET&quot;</text>
  <text x="274.8" y="153" class="pun">,</text>
  <text x="283.1" y="153" class="txt"> </text>
  <text x="291.5" y="153" class="str">&quot;POST&quot;</text>
  <text x="341.6" y="153" class="pun">,</text>
  <text x="349.9" y="153" class="txt"> </text>
  <text x="358.3" y="153" class="str">&quot;PUT&quot;</text>
  <text x="400.0" y="153" class="pun">,</text>
  <text x="408.4" y="153" class="txt"> </text>
  <text x="416.7" y="153" class="str">&quot;DELETE&quot;</text>
  <text x="483.5" y="153" class="pun">,</text>
  <text x="491.9" y="153" class="txt"> </text>
  <text x="500.2" y="153" class="str">&quot;OPTIONS&quot;</text>
  <text x="575.4" y="153" class="pun">)</text>
  <text x="66.0" y="173" class="txt">    </text>
  <text x="99.4" y="173" class="pun">.</text>
  <text x="107.8" y="173" class="met">allowCredentials</text>
  <text x="241.3" y="173" class="pun">(</text>
  <text x="249.7" y="173" class="kw">true</text>
  <text x="283.1" y="173" class="pun">)</text>
  <text x="291.4" y="173" class="pun">;</text>
</svg>
