<?xml version="1.0" encoding="UTF-8"?>
<svg xmlns="http://www.w3.org/2000/svg" width="760" height="346" viewBox="0 0 760 346">
  <defs>
    <linearGradient id="bg" x1="0%" y1="0%" x2="100%" y2="100%">
      <stop offset="0%" style="stop-color:#667eea"/>
      <stop offset="100%" style="stop-color:#764ba2"/>
    </linearGradient>
    <filter id="shadow" x="-20%" y="-20%" width="140%" height="140%">
      <feDropShadow dx="0" dy="8" stdDeviation="12" flood-color="#000" flood-opacity="0.35"/>
    </filter>
    <style>
      .kw { fill: #c792ea; font-family: ui-monospace, 'Cascadia Code', 'Fira Code', 'JetBrains Mono', Consolas, monospace; font-size: 14px; }
      .ann { fill: #ffcb6b; font-family: ui-monospace, 'Cascadia Code', 'Fira Code', 'JetBrains Mono', Consolas, monospace; font-size: 14px; }
      .str { fill: #c3e88d; font-family: ui-monospace, 'Cascadia Code', 'Fira Code', 'JetBrains Mono', Consolas, monospace; font-size: 14px; }
      .typ { fill: #ffcb6b; font-family: ui-monospace, 'Cascadia Code', 'Fira Code', 'JetBrains Mono', Consolas, monospace; font-size: 14px; }
      .met { fill: #82aaff; font-family: ui-monospace, 'Cascadia Code', 'Fira Code', 'JetBrains Mono', Consolas, monospace; font-size: 14px; }
      .com { fill: #637777; font-family: ui-monospace, 'Cascadia Code', 'Fira Code', 'JetBrains Mono', Consolas, monospace; font-size: 14px; }
      .num { fill: #f78c6c; font-family: ui-monospace, 'Cascadia Code', 'Fira Code', 'JetBrains Mono', Consolas, monospace; font-size: 14px; }
      .pun { fill: #7fdbca; font-family: ui-monospace, 'Cascadia Code', 'Fira Code', 'JetBrains Mono', Consolas, monospace; font-size: 14px; }
      .txt { fill: #d6deeb; font-family: ui-monospace, 'Cascadia Code', 'Fira Code', 'JetBrains Mono', Consolas, monospace; font-size: 14px; }
      .ln { fill: #4b6479; font-family: ui-monospace, 'Cascadia Code', 'Fira Code', 'JetBrains Mono', Consolas, monospace; font-size: 14px; text-anchor: end; }
      .wm { fill: rgba(255,255,255,0.55); font-family: system-ui, sans-serif; font-size: 11px; }
      .cap { fill: rgba(255,255,255,0.75); font-family: system-ui, sans-serif; font-size: 12px; }
    </style>
  </defs>
  <rect width="100%" height="100%" fill="url(#bg)"/>
  <g filter="url(#shadow)">
    <rect x="40" y="40" width="680" height="230" rx="10" fill="#21252b"/>
    <rect x="40" y="40" width="680" height="36" rx="10" fill="#21252b"/>
    <rect x="40" y="66" width="680" height="10" fill="#21252b"/>
    <circle cx="60" cy="58" r="6" fill="#ff5f56"/>
    <circle cx="80" cy="58" r="6" fill="#ffbd2e"/>
    <circle cx="100" cy="58" r="6" fill="#27c93f"/>
    <rect x="40" y="76" width="680" height="194" rx="0" fill="#011627"/>
    <rect x="40" y="260" width="680" height="10" rx="10" fill="#011627"/>
  </g>
  <text x="96" y="112" class="ln">1</text>
  <text x="108.0" y="112" class="ann">@Valid</text>
  <text x="96" y="134" class="ln">2</text>
  <text x="108.0" y="134" class="kw">private</text>
  <text x="167.1" y="134" class="txt"> </text>
  <text x="175.6" y="134" class="typ">Security</text>
  <text x="243.2" y="134" class="txt"> </text>
  <text x="251.6" y="134" class="txt">security</text>
  <text x="319.2" y="134" class="pun">;</text>
  <text x="96" y="156" class="ln">3</text>
  <text x="96" y="178" class="ln">4</text>
  <text x="108.0" y="178" class="kw">public</text>
  <text x="158.7" y="178" class="txt"> </text>
  <text x="167.1" y="178" class="kw">static</text>
  <text x="217.8" y="178" class="txt"> </text>
  <text x="226.3" y="178" class="kw">class</text>
  <text x="268.5" y="178" class="txt"> </text>
  <text x="277.0" y="178" class="typ">Security</text>
  <text x="344.6" y="178" class="txt"> </text>
  <text x="353.0" y="178" class="pun">{</text>
  <text x="96" y="200" class="ln">5</text>
  <text x="108.0" y="200" class="txt">  </text>
  <text x="124.9" y="200" class="ann">@NotBlank</text>
  <text x="200.9" y="200" class="txt"> </text>
  <text x="209.4" y="200" class="kw">private</text>
  <text x="268.5" y="200" class="txt"> </text>
  <text x="277.0" y="200" class="typ">String</text>
  <text x="327.7" y="200" class="txt"> </text>
  <text x="336.1" y="200" class="txt">username</text>
  <text x="403.7" y="200" class="pun">;</text>
  <text x="96" y="222" class="ln">6</text>
  <text x="108.0" y="222" class="txt">  </text>
  <text x="124.9" y="222" class="ann">@NotBlank</text>
  <text x="200.9" y="222" class="txt"> </text>
  <text x="209.4" y="222" class="kw">private</text>
  <text x="268.5" y="222" class="txt"> </text>
  <text x="277.0" y="222" class="typ">String</text>
  <text x="327.7" y="222" class="txt"> </text>
  <text x="336.1" y="222" class="txt">password</text>
  <text x="403.7" y="222" class="pun">;</text>
  <text x="96" y="244" class="ln">7</text>
  <text x="108.0" y="244" class="pun">}</text>
  <text x="40" y="332" class="cap">Tweet #10 · spring-boot-validated-config  #SpringBoot</text>
  <text x="720" y="332" class="wm" text-anchor="end">codingstrain · carbon style</text>
</svg>
