<?xml version="1.0" encoding="UTF-8"?>
<svg xmlns="http://www.w3.org/2000/svg" width="760" height="280" viewBox="0 0 760 280">
  <defs>
    <linearGradient id="bg" x1="0%" y1="0%" x2="100%" y2="100%">
      <stop offset="0%" style="stop-color:#667eea"/>
      <stop offset="100%" style="stop-color:#764ba2"/>
    </linearGradient>
    <filter id="shadow" x="-20%" y="-20%" width="140%" height="140%">
      <feDropShadow dx="0" dy="8" stdDeviation="12" flood-color="#000" flood-opacity="0.35"/>
    </filter>
    <style>
      .kw { fill: #c792ea; font-family: ui-monospace, 'Cascadia Code', 'Fira Code', 'JetBrains Mono', Consolas, monospace; font-size: 14px; }
      .ann { fill: #ffcb6b; font-family: ui-monospace, 'Cascadia Code', 'Fira Code', 'JetBrains Mono', Consolas, monospace; font-size: 14px; }
      .str { fill: #c3e88d; font-family: ui-monospace, 'Cascadia Code', 'Fira Code', 'JetBrains Mono', Consolas, monospace; font-size: 14px; }
      .typ { fill: #ffcb6b; font-family: ui-monospace, 'Cascadia Code', 'Fira Code', 'JetBrains Mono', Consolas, monospace; font-size: 14px; }
      .met { fill: #82aaff; font-family: ui-monospace, 'Cascadia Code', 'Fira Code', 'JetBrains Mono', Consolas, monospace; font-size: 14px; }
      .com { fill: #637777; font-family: ui-monospace, 'Cascadia Code', 'Fira Code', 'JetBrains Mono', Consolas, monospace; font-size: 14px; }
      .num { fill: #f78c6c; font-family: ui-monospace, 'Cascadia Code', 'Fira Code', 'JetBrains Mono', Consolas, monospace; font-size: 14px; }
      .pun { fill: #7fdbca; font-family: ui-monospace, 'Cascadia Code', 'Fira Code', 'JetBrains Mono', Consolas, monospace; font-size: 14px; }
      .txt { fill: #d6deeb; font-family: ui-monospace, 'Cascadia Code', 'Fira Code', 'JetBrains Mono', Consolas, monospace; font-size: 14px; }
      .ln { fill: #4b6479; font-family: ui-monospace, 'Cascadia Code', 'Fira Code', 'JetBrains Mono', Consolas, monospace; font-size: 14px; text-anchor: end; }
      .wm { fill: rgba(255,255,255,0.55); font-family: system-ui, sans-serif; font-size: 11px; }
      .cap { fill: rgba(255,255,255,0.75); font-family: system-ui, sans-serif; font-size: 12px; }
    </style>
  </defs>
  <rect width="100%" height="100%" fill="url(#bg)"/>
  <g filter="url(#shadow)">
    <rect x="40" y="40" width="680" height="164" rx="10" fill="#21252b"/>
    <rect x="40" y="40" width="680" height="36" rx="10" fill="#21252b"/>
    <rect x="40" y="66" width="680" height="10" fill="#21252b"/>
    <circle cx="60" cy="58" r="6" fill="#ff5f56"/>
    <circle cx="80" cy="58" r="6" fill="#ffbd2e"/>
    <circle cx="100" cy="58" r="6" fill="#27c93f"/>
    <rect x="40" y="76" width="680" height="128" rx="0" fill="#011627"/>
    <rect x="40" y="194" width="680" height="10" rx="10" fill="#011627"/>
  </g>
  <text x="96" y="112" class="ln">1</text>
  <text x="108.0" y="112" class="txt">registry</text>
  <text x="175.6" y="112" class="pun">.</text>
  <text x="184.0" y="112" class="met">addMapping</text>
  <text x="268.5" y="112" class="pun">(</text>
  <text x="277.0" y="112" class="str">&quot;/**&quot;</text>
  <text x="319.2" y="112" class="pun">)</text>
  <text x="96" y="134" class="ln">2</text>
  <text x="108.0" y="134" class="txt">  </text>
  <text x="124.9" y="134" class="pun">.</text>
  <text x="133.3" y="134" class="met">allowedOrigins</text>
  <text x="251.6" y="134" class="pun">(</text>
  <text x="260.1" y="134" class="str">&quot;http://localhost:3000&quot;</text>
  <text x="454.4" y="134" class="pun">)</text>
  <text x="96" y="156" class="ln">3</text>
  <text x="108.0" y="156" class="txt">  </text>
  <text x="124.9" y="156" class="pun">.</text>
  <text x="133.3" y="156" class="met">allowedMethods</text>
  <text x="251.6" y="156" class="pun">(</text>
  <text x="260.1" y="156" class="str">&quot;GET&quot;</text>
  <text x="302.3" y="156" class="pun">,</text>
  <text x="310.8" y="156" class="txt"> </text>
  <text x="319.2" y="156" class="str">&quot;POST&quot;</text>
  <text x="369.9" y="156" class="pun">,</text>
  <text x="378.4" y="156" class="txt"> </text>
  <text x="386.8" y="156" class="str">&quot;PUT&quot;</text>
  <text x="429.1" y="156" class="pun">,</text>
  <text x="437.5" y="156" class="txt"> </text>
  <text x="446.0" y="156" class="str">&quot;DELETE&quot;</text>
  <text x="513.6" y="156" class="pun">,</text>
  <text x="522.0" y="156" class="txt"> </text>
  <text x="530.5" y="156" class="str">&quot;OPTIONS&quot;</text>
  <text x="606.5" y="156" class="pun">)</text>
  <text x="96" y="178" class="ln">4</text>
  <text x="108.0" y="178" class="txt">  </text>
  <text x="124.9" y="178" class="pun">.</text>
  <text x="133.3" y="178" class="met">allowCredentials</text>
  <text x="268.5" y="178" class="pun">(</text>
  <text x="277.0" y="178" class="kw">true</text>
  <text x="310.8" y="178" class="pun">)</text>
  <text x="319.2" y="178" class="pun">;</text>
  <text x="40" y="266" class="cap">Tweet #31 · cors-demo  #SpringBoot</text>
  <text x="720" y="266" class="wm" text-anchor="end">codingstrain · carbon style</text>
</svg>
